<?xml version="1.0" encoding="UTF-8"?>
<svg id="Layer_2" data-name="Layer 2" xmlns="http://www.w3.org/2000/svg" viewBox="0 0 365.25 186.26">
  <defs>
    <style>
      .cls-1 {
        fill: #d9d9d9;
        stroke-width: 0px;
      }
    </style>
  </defs>
  <g id="Layer_1-2" data-name="Layer 1">
    <path class="cls-1" d="M357.21,60.12c0-8.25,8.05-8.25,8.05-16.5s-8.05-8.26-8.05-16.51,6.16-16.12-1.64-21.4c-7.13-4.83-12.32,2.35-20.77,2.35s-8.45-8.05-16.91-8.05-8.45,8.05-16.91,8.05-8.45-8.05-16.91-8.05-8.45,8.05-16.9,8.05-8.45-8.05-16.91-8.05-8.45,8.05-16.9,8.05S224.9,0,216.45,0s-8.46,8.05-16.91,8.05S191.08,0,182.63,0s-8.45,8.05-16.91,8.05S157.26,0,148.81,0s-8.45,8.05-16.91,8.05S123.45,0,114.99,0s-8.45,8.05-16.91,8.05S89.63,0,81.18,0s-8.45,8.05-16.91,8.05S55.82,0,47.36,0s-8.45,8.05-16.91,8.05S16.81.87,9.68,5.7c-7.79,5.28-1.64,13.14-1.64,21.4S0,35.36,0,43.62s8.05,8.25,8.05,16.5S0,68.37,0,76.63s8.05,8.25,8.05,16.5S0,101.38,0,109.63s8.05,8.25,8.05,16.51S0,134.39,0,142.65s8.05,8.26,8.05,16.51-6.16,16.12,1.64,21.4c7.13,4.83,12.32-2.35,20.77-2.35s8.45,8.05,16.91,8.05,8.45-8.05,16.91-8.05,8.45,8.05,16.91,8.05,8.45-8.05,16.9-8.05,8.45,8.05,16.91,8.05,8.45-8.05,16.9-8.05,8.45,8.05,16.91,8.05,8.46-8.05,16.91-8.05,8.45,8.05,16.91,8.05,8.45-8.05,16.91-8.05,8.46,8.05,16.91,8.05,8.45-8.05,16.91-8.05,8.45,8.05,16.9,8.05,8.45-8.05,16.91-8.05,8.45,8.05,16.9,8.05,8.45-8.05,16.91-8.05,8.45,8.05,16.91,8.05,8.45-8.05,16.91-8.05,13.64,7.18,20.77,2.35c7.79-5.28,1.64-13.14,1.64-21.4s8.05-8.26,8.05-16.51-8.05-8.25-8.05-16.5,8.05-8.25,8.05-16.51-8.05-8.25-8.05-16.5,8.05-8.25,8.05-16.5-8.05-8.25-8.05-16.51Z"/>
  </g>
</svg>